<mxfile host="app.diagrams.net" agent="Mozilla/5.0 (Windows NT 10.0; Win64; x64) AppleWebKit/537.36 (KHTML, like Gecko) Chrome/126.0.0.0 YaBrowser/24.7.0.0 Safari/537.36" version="24.7.16">
  <diagram id="C5RBs43oDa-KdzZeNtuy" name="Page-1">
    <mxGraphModel dx="724" dy="391" grid="1" gridSize="10" guides="1" tooltips="1" connect="1" arrows="1" fold="1" page="1" pageScale="1" pageWidth="827" pageHeight="1169" math="0" shadow="0">
      <root>
        <mxCell id="WIyWlLk6GJQsqaUBKTNV-0" />
        <mxCell id="WIyWlLk6GJQsqaUBKTNV-1" parent="WIyWlLk6GJQsqaUBKTNV-0" />
        <mxCell id="I8TWAb0VSsUhjvwFvtiF-0" value="q3" style="ellipse;whiteSpace=wrap;html=1;" vertex="1" parent="WIyWlLk6GJQsqaUBKTNV-1">
          <mxGeometry x="293" y="270" width="60" height="40" as="geometry" />
        </mxCell>
        <mxCell id="I8TWAb0VSsUhjvwFvtiF-1" value="q0" style="ellipse;whiteSpace=wrap;html=1;" vertex="1" parent="WIyWlLk6GJQsqaUBKTNV-1">
          <mxGeometry x="290" y="120" width="60" height="40" as="geometry" />
        </mxCell>
        <mxCell id="I8TWAb0VSsUhjvwFvtiF-2" value="q1" style="ellipse;whiteSpace=wrap;html=1;" vertex="1" parent="WIyWlLk6GJQsqaUBKTNV-1">
          <mxGeometry x="410" y="200" width="60" height="40" as="geometry" />
        </mxCell>
        <mxCell id="I8TWAb0VSsUhjvwFvtiF-3" value="q2" style="ellipse;whiteSpace=wrap;html=1;" vertex="1" parent="WIyWlLk6GJQsqaUBKTNV-1">
          <mxGeometry x="190" y="200" width="60" height="40" as="geometry" />
        </mxCell>
        <mxCell id="I8TWAb0VSsUhjvwFvtiF-4" value="" style="endArrow=classic;html=1;rounded=0;entryX=0.5;entryY=0;entryDx=0;entryDy=0;" edge="1" parent="WIyWlLk6GJQsqaUBKTNV-1" target="I8TWAb0VSsUhjvwFvtiF-1">
          <mxGeometry width="50" height="50" relative="1" as="geometry">
            <mxPoint x="320" y="50" as="sourcePoint" />
            <mxPoint x="320" y="10" as="targetPoint" />
          </mxGeometry>
        </mxCell>
        <mxCell id="I8TWAb0VSsUhjvwFvtiF-7" value="" style="endArrow=classic;html=1;rounded=0;exitX=0.985;exitY=0.773;exitDx=0;exitDy=0;exitPerimeter=0;entryX=0;entryY=0;entryDx=0;entryDy=0;" edge="1" parent="WIyWlLk6GJQsqaUBKTNV-1" source="I8TWAb0VSsUhjvwFvtiF-1" target="I8TWAb0VSsUhjvwFvtiF-2">
          <mxGeometry width="50" height="50" relative="1" as="geometry">
            <mxPoint x="380" y="190" as="sourcePoint" />
            <mxPoint x="430" y="140" as="targetPoint" />
          </mxGeometry>
        </mxCell>
        <mxCell id="I8TWAb0VSsUhjvwFvtiF-8" value="" style="endArrow=classic;html=1;rounded=0;entryX=1;entryY=0;entryDx=0;entryDy=0;" edge="1" parent="WIyWlLk6GJQsqaUBKTNV-1" source="I8TWAb0VSsUhjvwFvtiF-2" target="I8TWAb0VSsUhjvwFvtiF-0">
          <mxGeometry width="50" height="50" relative="1" as="geometry">
            <mxPoint x="330" y="220" as="sourcePoint" />
            <mxPoint x="380" y="260" as="targetPoint" />
          </mxGeometry>
        </mxCell>
        <mxCell id="I8TWAb0VSsUhjvwFvtiF-9" value="" style="endArrow=classic;html=1;rounded=0;entryX=0.772;entryY=0.949;entryDx=0;entryDy=0;entryPerimeter=0;exitX=0.833;exitY=0.667;exitDx=0;exitDy=0;exitPerimeter=0;" edge="1" parent="WIyWlLk6GJQsqaUBKTNV-1" source="I8TWAb0VSsUhjvwFvtiF-13" target="I8TWAb0VSsUhjvwFvtiF-3">
          <mxGeometry width="50" height="50" relative="1" as="geometry">
            <mxPoint x="300" y="300" as="sourcePoint" />
            <mxPoint x="380" y="240" as="targetPoint" />
          </mxGeometry>
        </mxCell>
        <mxCell id="I8TWAb0VSsUhjvwFvtiF-11" value="1" style="text;html=1;align=center;verticalAlign=middle;whiteSpace=wrap;rounded=0;" vertex="1" parent="WIyWlLk6GJQsqaUBKTNV-1">
          <mxGeometry x="353" y="150" width="60" height="30" as="geometry" />
        </mxCell>
        <mxCell id="I8TWAb0VSsUhjvwFvtiF-12" value="0" style="text;html=1;align=center;verticalAlign=middle;whiteSpace=wrap;rounded=0;" vertex="1" parent="WIyWlLk6GJQsqaUBKTNV-1">
          <mxGeometry x="360" y="250" width="60" height="30" as="geometry" />
        </mxCell>
        <mxCell id="I8TWAb0VSsUhjvwFvtiF-13" value="1" style="text;html=1;align=center;verticalAlign=middle;whiteSpace=wrap;rounded=0;" vertex="1" parent="WIyWlLk6GJQsqaUBKTNV-1">
          <mxGeometry x="250" y="260" width="60" height="30" as="geometry" />
        </mxCell>
        <mxCell id="I8TWAb0VSsUhjvwFvtiF-18" value="" style="endArrow=classic;html=1;rounded=0;exitX=0.653;exitY=0.053;exitDx=0;exitDy=0;exitPerimeter=0;" edge="1" parent="WIyWlLk6GJQsqaUBKTNV-1" source="I8TWAb0VSsUhjvwFvtiF-3" target="I8TWAb0VSsUhjvwFvtiF-1">
          <mxGeometry width="50" height="50" relative="1" as="geometry">
            <mxPoint x="320" y="190" as="sourcePoint" />
            <mxPoint x="370" y="140" as="targetPoint" />
          </mxGeometry>
        </mxCell>
        <mxCell id="I8TWAb0VSsUhjvwFvtiF-19" value="0" style="text;html=1;align=center;verticalAlign=middle;whiteSpace=wrap;rounded=0;" vertex="1" parent="WIyWlLk6GJQsqaUBKTNV-1">
          <mxGeometry x="220" y="160" width="60" height="30" as="geometry" />
        </mxCell>
      </root>
    </mxGraphModel>
  </diagram>
</mxfile>
